<svg width="74" height="74" viewBox="0 0 74 74" fill="none" xmlns="http://www.w3.org/2000/svg">
<path d="M3.66667 62C3.66667 57.5797 5.42262 53.3405 8.54822 50.2149C11.6738 47.0893 15.9131 45.3333 20.3333 45.3333H53.6667C58.0869 45.3333 62.3262 47.0893 65.4518 50.2149C68.5774 53.3405 70.3333 57.5797 70.3333 62C70.3333 64.2101 69.4554 66.3298 67.8926 67.8926C66.3298 69.4554 64.2101 70.3333 62 70.3333H12C9.78987 70.3333 7.67025 69.4554 6.10745 67.8926C4.54465 66.3298 3.66667 64.2101 3.66667 62Z" stroke="#F8F8F8" stroke-width="6.25" stroke-linejoin="round"/>
<path d="M37 28.6667C43.9036 28.6667 49.5 23.0702 49.5 16.1667C49.5 9.26311 43.9036 3.66667 37 3.66667C30.0964 3.66667 24.5 9.26311 24.5 16.1667C24.5 23.0702 30.0964 28.6667 37 28.6667Z" stroke="#F8F8F8" stroke-width="6.25"/>
</svg>
